<?xml version="1.0" standalone="no"?><!DOCTYPE svg PUBLIC "-//W3C//DTD SVG 1.1//EN" "http://www.w3.org/Graphics/SVG/1.1/DTD/svg11.dtd"><svg t="1578032533648" class="icon" viewBox="0 0 1024 1024" version="1.1" xmlns="http://www.w3.org/2000/svg" p-id="2025" xmlns:xlink="http://www.w3.org/1999/xlink" width="200" height="200"><defs><style type="text/css"></style></defs><path d="M510.846222 160.458505c-192.912661 0-350.781178 157.866471-350.781178 350.83439 0 192.96485 157.868517 350.833367 350.781178 350.833367 192.962803 0 350.830297-157.868517 350.830297-350.833367C861.676519 318.325999 703.809025 160.458505 510.846222 160.458505M317.933561 406.0479l122.771161-122.769115 122.758881 122.769115-87.664595 0 0 140.343375-70.196759 0 0-140.343375L317.933561 406.0479zM703.809025 616.538915 581.041958 739.308029 458.225771 616.538915l87.722924 0 0-140.343375 70.139453 0 0 140.343375L703.809025 616.538915z" p-id="2026"></path></svg>